<svg xmlns="http://www.w3.org/2000/svg" xmlns:xlink="http://www.w3.org/1999/xlink" width="1920" zoomAndPan="magnify" viewBox="0 0 1440 809.999993" height="1080" preserveAspectRatio="xMidYMid meet" version="1.2"><defs><clipPath id="8022c3c579"><path d="M 620.847656 7.347656 L 1023.097656 7.347656 L 1023.097656 404.886719 L 620.847656 404.886719 Z M 620.847656 7.347656 "/></clipPath><clipPath id="d58f64f9ce"><path d="M 421.863281 404.183594 L 819.300781 404.183594 L 819.300781 801.617188 L 421.863281 801.617188 Z M 421.863281 404.183594 "/></clipPath><clipPath id="08a9ec31ca"><path d="M 416.636719 405.101562 L 819.144531 405.101562 L 819.144531 802.539062 L 416.636719 802.539062 Z M 416.636719 405.101562 "/></clipPath></defs><g id="1e0c4e6153"><g clip-rule="nonzero" clip-path="url(#8022c3c579)"><path style=" stroke:none;fill-rule:nonzero;fill:#ffffff;fill-opacity:1;" d="M 1023.355469 404.488281 L 620.898438 7.800781 L 620.898438 404.488281 Z M 1023.355469 404.488281 "/></g><g clip-rule="nonzero" clip-path="url(#d58f64f9ce)"><path style=" stroke:none;fill-rule:nonzero;fill:#000000;fill-opacity:1;" d="M 819.40625 404.183594 L 421.863281 404.183594 L 819.40625 801.722656 Z M 802.839844 761.738281 L 461.851562 420.746094 L 720.019531 420.746094 L 720.019531 503.566406 L 802.839844 503.566406 Z M 802.839844 487.003906 L 736.585938 487.003906 L 736.585938 420.746094 L 802.839844 420.746094 Z M 802.839844 487.003906 "/></g><g clip-rule="nonzero" clip-path="url(#08a9ec31ca)"><path style=" stroke:none;fill-rule:nonzero;fill:#000000;fill-opacity:1;" d="M 416.636719 405.503906 L 819.089844 802.1875 L 819.089844 405.503906 Z M 416.636719 405.503906 "/></g></g></svg>
